<?xml version="1.0" standalone="no"?><!DOCTYPE svg PUBLIC "-//W3C//DTD SVG 1.1//EN" "http://www.w3.org/Graphics/SVG/1.1/DTD/svg11.dtd"><svg t="1632449850345" class="icon" viewBox="0 0 1024 1024" version="1.1" xmlns="http://www.w3.org/2000/svg" p-id="4217" width="16" height="16" xmlns:xlink="http://www.w3.org/1999/xlink"><defs><style type="text/css"></style></defs><path d="M895.946487 1024H128.053513V128.124863h128.622073v63.991081H192.044594v767.892975h639.910812V192.115944h-66.230769V128.124863H895.946487v895.875137z" fill="#222222" p-id="4218"></path><path d="M703.973244 256.107025H320.026756V64.133781h100.146042a95.986622 95.986622 0 0 1 181.09476 0H703.973244zM384.017838 192.115944h255.964324V128.124863h-95.986621V96.129322a31.995541 31.995541 0 0 0-63.991082 0v31.995541h-95.986621zM319.706801 512.07135h383.946487v63.991081h-383.946487zM319.706801 640.053513h383.946487v63.991081h-383.946487zM319.706801 768.035675h383.946487v63.991081h-383.946487zM319.706801 384.089188h159.977703v63.991081h-159.977703z" fill="#222222" p-id="4219"></path></svg>